<svg xmlns="http://www.w3.org/2000/svg" viewBox="0 0 854.25 314.28"><defs><style>.cls-1{fill:#fff;}</style></defs><g id="Layer_2" data-name="Layer 2"><g id="Layer_2-2" data-name="Layer 2"><path class="cls-1" d="M0,147.24c40.53-37.35,82.43-39.61,126.24,6.72C110,170.27,92.18,182.29,70.56,183.72,51.05,183.33,30.24,152.52,0,147.24Z"/><path class="cls-1" d="M22.08,143.88c32.16-21.6,50.88-19.68,86.4,8.57-11.31,11.35-23.7,19.72-38.74,20.71C56.16,172.89,43.12,147.55,22.08,143.88Z"/><path class="cls-1" d="M135.36,163.56c-55.68,103.2,3.36,96.48,1.92,150.72C165.6,263.65,168.63,213.36,135.36,163.56Z"/><path class="cls-1" d="M135.36,184.68c-18.45,32.63-13.24,66.22,4.8,100.32C152,245.6,153.62,210.75,135.36,184.68Z"/><path class="cls-1" d="M122.76,0c7.56,56.16-48.24,73.08,14.76,149.76C167.66,92.87,159.28,43.64,122.76,0Z"/><path class="cls-1" d="M131,31.56c-19,33-17.42,65.91,1.92,98.64Q159.41,76.62,131,31.56Z"/><rect class="cls-1" x="246.96" y="154.44" width="601.92" height="7.2"/><path class="cls-1" d="M756,55.62,751.32,68C766,69.36,771,82.19,769,103.14H696.24c.22,9.21-5.2,12.12-12.78,12.6v-7.56c8,2.78,8.24-14.53,7.2-35.28H697V95.58h65.52c1.88-16.13-7.21-20.91-23-18.72l10.44-21.6Z"/><rect class="cls-1" x="258.3" y="120.06" width="5.76" height="7.2"/><rect class="cls-1" x="267.84" y="120.24" width="5.76" height="7.2"/><rect class="cls-1" x="320.76" y="108.18" width="5.76" height="7.2"/><rect class="cls-1" x="454.14" y="60.66" width="5.76" height="7.2"/><rect class="cls-1" x="463.5" y="60.66" width="5.76" height="7.2"/><rect class="cls-1" x="535.68" y="54" width="5.76" height="7.2"/><rect class="cls-1" x="691.02" y="55.08" width="5.76" height="7.2"/><path class="cls-1" d="M829.8,94.68,787,94.86V72.72h-6.12c.66,19,1.72,38.9-6.84,36v7.2c7.41,0,11.62-4.31,13-12.6h45.36c12,14.07,19.48,1.86,20.36-10.23C853.71,79,835,67.86,829.8,94.68Zm11,8.1c-2.68,0-4.86-4.11-4.86-9.18s2.18-9.18,4.86-9.18,4.86,4.11,4.86,9.18S843.46,102.78,840.78,102.78Z"/><path class="cls-1" d="M462.06,71.46c-5.8,0-10.5,7.33-10.5,16.38s4.7,16.38,10.5,16.38,10.5-7.33,10.5-16.38S467.86,71.46,462.06,71.46Zm-.36,26.1c-3,0-5.4-4.19-5.4-9.36s2.42-9.36,5.4-9.36,5.4,4.19,5.4,9.36S464.68,97.56,461.7,97.56Z"/><path class="cls-1" d="M651.78,55.08V91.26A5.31,5.31,0,0,1,648,94.14H619.92c-4.3-33.23-21.78-30.06-31.5-15.3V72.9h-6.66V94.32H545.22c11.39-20.34.47-30.79-7-31.12-7.67-.35-17.12,16.25-4.38,31.48h-33.3c1.07-29.56-17.77-28.53-22.55-12.6-3.68,12.25,2.71,26.8,15.71,20-.51,4.25-2.53,6.61-6.66,6.3v7.38c7-.64,12.19-3.45,12.6-12.06H536.4l2.88-3.42,3.78,3.06H653c3.36-1.52,5.16-4.39,5.76-8.28V55.26ZM488.88,97c-3,0-5.4-4.19-5.4-9.36s2.42-9.36,5.4-9.36,5.4,4.19,5.4,9.36S491.86,97,488.88,97Zm50-7c-3,0-5.4-4.19-5.4-9.36s2.42-9.36,5.4-9.36,5.4,4.19,5.4,9.36S541.9,90,538.92,90Zm72.72,4H588.78c2.09-8.55,6-14.79,13.32-16.56C610,76.94,611.85,84.17,611.64,94Z"/><path class="cls-1" d="M419.4,55.08V91.44A4,4,0,0,1,416,94.32h-17.1c-2.34-29.88-21.42-31.68-31-14.22v-25h-7.74V94H329.4V72.18h-6.84v18.9a7.12,7.12,0,0,1-2.16,4.5h-29c-7-2.34-6.84-17.64-20.16-16.38v8.46c21.78,4-15.66,43.74-17.82-4.5h-6.12c-3.71,32,26.75,46.94,35.46,15.12l6.84,5H420.84a12.63,12.63,0,0,0,5.94-7V55.44C426.78,56,419.4,55.08,419.4,55.08ZM390.06,94.74H367.2c2.09-8.55,6-14.79,13.32-16.56C388.44,77.72,390.27,85,390.06,94.74Z"/><rect class="cls-1" x="663.12" y="55.08" width="7.2" height="47.16"/><rect class="cls-1" x="431.28" y="56.16" width="7.2" height="47.16"/><path class="cls-1" d="M251.3,247l-3.63,13.57H243l11.87-43.13h5.44l11.92,43.13h-4.82L263.69,247Zm11.45-4.35-3.42-12.42c-.77-2.81-1.29-5.37-1.81-7.87h-.1c-.52,2.56-1.09,5.19-1.77,7.81l-3.42,12.48Z"/><path class="cls-1" d="M277.38,217.47h4.5v38.46h14.93v4.67H277.38Z"/><path class="cls-1" d="M312.21,253.82a13.87,13.87,0,0,0,8.09,2.81c4.61,0,7.31-3,7.31-7.36,0-4-1.87-6.33-6.59-8.57-5.7-2.5-9.22-6.15-9.22-12.23,0-6.72,4.51-11.71,11.3-11.71a13.57,13.57,0,0,1,7.72,2.11l-1.24,4.55a12,12,0,0,0-6.64-2,6.19,6.19,0,0,0-6.58,6.46c0,4,2.12,6,6.94,8.32,5.91,2.82,8.92,6.34,8.92,12.67,0,6.66-4,12.42-12.23,12.42a15.52,15.52,0,0,1-8.92-2.75Z"/><path class="cls-1" d="M344,247l-3.63,13.57h-4.66l11.87-43.13h5.44L365,260.6h-4.82L356.43,247Zm11.46-4.35-3.43-12.42c-.77-2.81-1.29-5.37-1.81-7.87h-.1c-.52,2.56-1.09,5.19-1.77,7.81L345,242.68Z"/><path class="cls-1" d="M370.12,217.47h18.81v4.67h-14.3v14.33h13.21v4.61H374.63V260.6h-4.51Z"/><path class="cls-1" d="M401.06,260.6l-8.86-43.13H397l4.15,21.82c1,5.37,2,10.75,2.59,14.91h.1c.57-4.29,1.66-9.41,2.85-15l4.67-21.75H416l4.25,21.88c1,5.12,1.92,10.24,2.44,14.79h.1c.73-4.74,1.72-9.54,2.8-14.92l4.62-21.75h4.61L425,260.6h-4.72l-4.4-22.46c-1.09-5.51-1.82-9.73-2.28-14.08h-.11c-.62,4.29-1.4,8.51-2.69,14.08l-5,22.46Z"/><path class="cls-1" d="M441.91,247l-3.62,13.57h-4.67l11.87-43.13h5.44l11.93,43.13H458L454.3,247Zm11.46-4.35L450,230.26c-.78-2.81-1.3-5.37-1.82-7.87H448c-.52,2.56-1.09,5.19-1.76,7.81l-3.42,12.48Z"/><path class="cls-1" d="M508.42,241.66c-.26-6-.57-13.25-.52-18.63h-.15c-1.19,5.06-2.65,10.44-4.41,16.39l-6.17,20.92h-3.42L488.1,239.8c-1.66-6.08-3.06-11.65-4-16.77H484c-.11,5.38-.37,12.61-.68,19.07l-.93,18.5h-4.3l2.43-43.13h5.76l6,20.86c1.45,5.31,2.64,10,3.52,14.53h.16c.88-4.36,2.12-9.09,3.68-14.53l6.22-20.86h5.75l2.18,43.13H509.3Z"/><path class="cls-1" d="M538.75,240.38H525.17v15.55h15.14v4.67H520.66V217.47h18.87v4.67H525.17v13.63h13.58Z"/><path class="cls-1" d="M546.16,218a52.9,52.9,0,0,1,9.59-.89c6.48,0,11.1,1.85,14.15,5.37s4.93,8.51,4.93,15.49-1.76,12.8-5,16.77-8.66,6.2-15.45,6.2a59.17,59.17,0,0,1-8.19-.51Zm4.51,38.14a22.89,22.89,0,0,0,4.57.32c9.64,0,14.87-6.65,14.87-18.3,0-10.17-4.61-16.64-14.15-16.64a21,21,0,0,0-5.29.58Z"/><path class="cls-1" d="M585.2,217.47V260.6h-4.51V217.47Z"/><path class="cls-1" d="M617.49,259.19a18.65,18.65,0,0,1-9.22,2.05c-9.85,0-17.26-7.68-17.26-21.82,0-13.51,7.41-22.66,18.24-22.66,4.36,0,7.1,1.15,8.3,1.92l-1.09,4.55a13.78,13.78,0,0,0-7.05-1.8c-8.19,0-13.64,6.47-13.64,17.79,0,10.56,4.93,17.35,13.43,17.35a15.22,15.22,0,0,0,7.36-1.79Z"/><path class="cls-1" d="M629,247l-3.62,13.57h-4.67l11.87-43.13H638L650,260.6h-4.82L641.39,247Zm11.46-4.35L637,230.26c-.78-2.81-1.3-5.37-1.81-7.87h-.11c-.52,2.56-1.09,5.19-1.76,7.81l-3.42,12.48Z"/><path class="cls-1" d="M655.08,217.47h4.51v38.46h14.93v4.67H655.08Z"/><path class="cls-1" d="M715,259.19a18.65,18.65,0,0,1-9.22,2.05c-9.85,0-17.26-7.68-17.26-21.82,0-13.51,7.41-22.66,18.24-22.66,4.35,0,7.1,1.15,8.29,1.92l-1.08,4.55a13.78,13.78,0,0,0-7-1.8c-8.19,0-13.64,6.47-13.64,17.79,0,10.56,4.93,17.35,13.43,17.35a15.22,15.22,0,0,0,7.36-1.79Z"/><path class="cls-1" d="M738.7,240.38H725.12v15.55h15.13v4.67H720.61V217.47h18.86v4.67H725.12v13.63H738.7Z"/><path class="cls-1" d="M746.11,260.6V217.47H751l11.2,21.82a133.5,133.5,0,0,1,6.27,14l.11-.06c-.42-5.76-.52-11-.52-17.73v-18h4.25V260.6h-4.56l-11.09-21.89a148.83,148.83,0,0,1-6.54-14.4l-.15.07c.26,5.44.36,10.62.36,17.79V260.6Z"/><path class="cls-1" d="M786.86,222.2H776.23v-4.73H802.1v4.73H791.42v38.4h-4.56Z"/><path class="cls-1" d="M824.08,240.38H810.5v15.55h15.13v4.67H806V217.47h18.86v4.67H810.5v13.63h13.58Z"/><path class="cls-1" d="M831.49,218a38.71,38.71,0,0,1,8.66-.89c4.82,0,7.93,1.08,10.11,3.52a12.09,12.09,0,0,1,2.74,8.19c0,5.69-2.9,9.47-6.58,11v.2c2.7,1.15,4.3,4.22,5.13,8.7,1.14,6,2,10.17,2.7,11.84h-4.67c-.57-1.22-1.35-4.93-2.33-10.3-1-6-2.9-8.2-7-8.39H836V260.6h-4.51ZM836,237.69h4.61c4.83,0,7.88-3.26,7.88-8.19,0-5.57-3.26-8-8-8.07A15,15,0,0,0,836,222Z"/><path class="cls-1" d="M183.4,87.55a24.82,24.82,0,0,0,12.74,3.66c7.27,0,11.51-3.91,11.51-9.56,0-5.24-2.94-8.23-10.37-11.14-9-3.25-14.53-8-14.53-15.89,0-8.73,7.1-15.22,17.8-15.22,5.63,0,9.72,1.33,12.17,2.75l-2,5.9a21.61,21.61,0,0,0-10.46-2.66c-7.51,0-10.37,4.57-10.37,8.4,0,5.24,3.35,7.82,10.95,10.81,9.3,3.66,14,8.23,14,16.47,0,8.65-6.29,16.13-19.27,16.13-5.31,0-11.1-1.58-14-3.58Z"/><path class="cls-1" d="M213.55,121.68h6.89v64.8h-7.18V138l.36,2.85L200.7,177.48h-5.13l-12.92-35.79L183,138v48.53h-7.18v-64.8h6.89l15.41,42.78Z"/>
<path class="cls-1" d="M178.44,256.11c0-20.46,9.66-33,23.1-33,6.2,0,11.07,3.68,14.13,7.76L211.9,236c-2.67-3.49-6-5.73-10.36-5.73-9.82,0-16.26,9.8-16.26,25.61,0,16,6.44,26,16.26,26,4.71,0,8.32-2.52,11.54-7l3.77,4.95c-4,5.82-9.11,9.21-15.94,9.21C188.18,289.08,178.44,276.86,178.44,256.11Z"/></g></g></svg>